PathFileType	4	(X/Y/Z)	pose_F01_0-91.trc
DataRate	CameraRate	NumFrames	NumMarkers	Units	OrigDataRate	OrigDataStartFrame	OrigNumFrames
30	30	8	21	m	30	22	91
Frame#	Time	CHip			RHip			RKnee			RAnkle			RBigToe			RSmallToe			RHeel			LHip			LKnee			LAnkle			LBigToe			LSmallToe			LHeel			Neck			Nose			RShoulder			RElbow			RWrist			LShoulder			LElbow			LWrist			
		X1	Y1	Z1	X2	Y2	Z2	X3	Y3	Z3	X4	Y4	Z4	X5	Y5	Z5	X6	Y6	Z6	X7	Y7	Z7	X8	Y8	Z8	X9	Y9	Z9	X10	Y10	Z10	X11	Y11	Z11	X12	Y12	Z12	X13	Y13	Z13	X14	Y14	Z14	X15	Y15	Z15	X16	Y16	Z16	X17	Y17	Z17	X18	Y18	Z18	X19	Y19	Z19	X20	Y20	Z20	X21	Y21	Z21	
22	0.7333333333333333	-0.17393936418326159	1.8739018188540166	-0.6398762052438051	-0.1861240955496985	1.869322509384922	-0.571875003901361	-0.2158423496862495	1.7282391573029716	-0.48122807008131974	-0.21478671090001047	1.5826267057916021	-0.4287297940450561	-0.20518086165084057	1.5749627837428932	-0.37339874842517246	-0.19873538764215026	1.5877587476652217	-0.3591809035769447	-0.20996358182947095	1.575116977661357	-0.4423170452107792	-0.15686003857255953	1.8784732494753367	-0.703730791434207	-0.1849884986926391	1.7245886120854605	-0.682164170472583	-0.16038621915162268	1.5822160429364072	-0.7072263546712302	-0.18410452700455318	1.5411865314092066	-0.6872401774308216	-0.16917847834742727	1.5494225251326144	-0.7278181658610671	-0.1531950196445077	1.5727583380489636	-0.7012350757000453	-0.19569572573984464	2.0357398774161033	-0.6199279639021874	-0.23462348950947104	2.0935989125261227	-0.5997820201934919	-0.21037449772194824	2.0284439832565644	-0.5293640594294413	-0.2358851660423416	1.9604110475249321	-0.4536475598091853	-0.22929608074002683	2.005611138304476	-0.5319778078881358	-0.17951346802941326	2.0450315843617273	-0.7132692798805014	-0.22337824642096105	1.9971767542441952	-0.7054447298065005	-0.22581886323097528	2.035966115553348	-0.6280195596935861
23	0.7666666666666667	-0.17169093920722991	1.8791293568378555	-0.6430045859209823	-0.18591673502182374	1.8743960000562194	-0.5728356745532783	-0.21262258825306482	1.7336107602125983	-0.4811097188343075	-0.21233783977256618	1.5801019815508752	-0.4310254088857102	-0.20518086165084057	1.5749627837428932	-0.37339874842517246	-0.19873538764215026	1.5877587476652217	-0.3591809035769447	-0.2084225905512885	1.5715894079695893	-0.44810895645894083	-0.15527703690467937	1.8824551598297572	-0.7096122757433722	-0.1835378608245674	1.7275402018847439	-0.687928962381643	-0.1604255045820143	1.582477881630047	-0.7071893965886102	-0.18404148382113514	1.5409531447791687	-0.6871191462258139	-0.2953345268690451	1.4873400955487723	-1.1982157376110039	-0.153483519577271	1.5744570099443231	-0.7010192646062103	-0.1924779774516516	2.0432287140607457	-0.6203411903027883	-0.2290326716499362	2.10565265306237	-0.6024668819789526	-0.2079872792380415	2.036099063924334	-0.5329357182869251	-0.24239089009712642	1.9702218755845846	-0.4354623439733561	-0.2293467444386874	2.0114507789056404	-0.5247360809756784	-0.17540023948347644	2.0523080547693033	-0.7105869848648868	-0.2207297153220054	2.0137040054965523	-0.7103045750700663	-0.2260915185794138	2.044323322319209	-0.6224285991452517
24	0.8	-0.1715636395045412	1.8817193420645573	-0.6435433368262715	-0.18363908410043733	1.877044844335651	-0.5755149496906027	-0.21036208793025984	1.7350030480605048	-0.48355471302693176	-0.21235104894638415	1.5805865289006695	-0.43066366370536685	-0.20518086165084057	1.5749627837428932	-0.37339874842517246	-0.19873538764215026	1.5877587476652217	-0.3591809035769447	-0.20988315260577772	1.568941883584167	-0.4458514034665134	-0.1545874837300002	1.88485359468104	-0.7071232453520829	-0.17808845183251448	1.7291060147421002	-0.689737513048421	-0.15976432266409735	1.580826481552131	-0.7035870524340883	-0.18951462701898122	1.5409869531925162	-0.6857876449101933	-0.29926875416214377	1.4864341859516912	-1.1875239208883956	-0.15154602124601035	1.5708476713878683	-0.7021205226926565	-0.18813247508884026	2.0470968388829136	-0.6250563365825517	-0.2236254500515933	2.1133202566815212	-0.6052442637325598	-0.2057785859293262	2.039690995286056	-0.535574453584397	-0.23944683758752852	1.9882595933780303	-0.43154822862554437	-0.22765099441793035	2.021348194275504	-0.5222208340560046	-0.17284459771755695	2.057697763206657	-0.7129166463164225	-0.20969319381572346	2.0282127835349266	-0.7056714937151484	-0.2113831640188804	2.0517085398900754	-0.6308465222654328
25	0.8333333333333334	-0.16946088935783957	1.8868343084431434	-0.6377952820691867	-0.18233273610302933	1.8823482593811256	-0.5728624812452293	-0.2073456637312909	1.734808664899784	-0.48255768534780297	-0.20906790372627237	1.5910936869796464	-0.4261934700219214	-0.20518086165084057	1.5749627837428932	-0.37339874842517246	-0.19873538764215026	1.5877587476652217	-0.3591809035769447	-0.20550620621353824	1.5766212649003626	-0.43754347175161534	-0.15316039856133631	1.8900406745556062	-0.7043655450713652	-0.1742651553275953	1.733288524950747	-0.6941644294495186	-0.15991382586964567	1.5817863942288517	-0.7033398651448958	-0.18647741972926016	1.5420698458495894	-0.6846963607815294	-0.29771272768902035	1.4861993419498545	-1.1946556387429723	-0.1517296485884275	1.5717026031629378	-0.7018210009522833	-0.18679526995151377	2.0517926672905324	-0.6215263510087753	-0.21827935043587876	2.120263346316011	-0.6068450275690059	-0.20357403879638794	2.041644084009493	-0.5369458330233795	-0.24486156958530766	1.9955100943784765	-0.41780792857836135	-0.22595524439717332	2.0312456096453677	-0.5197055871363309	-0.16794260486897453	2.0599123195300764	-0.7051362527174693	-0.19278101679577792	2.041591274463481	-0.7199117928610386	-0.19667480945834703	2.059093757460942	-0.6392644453856139
26	0.8666666666666667	-0.1693387289553066	1.8902554308946613	-0.629369024172944	-0.18212580747303514	1.8871368421817918	-0.5648458524649822	-0.20886136856621776	1.73347643281869	-0.480388021755575	-0.19906771578911578	1.592764099152483	-0.4151934890857111	-0.20518086165084057	1.5749627837428932	-0.37339874842517246	-0.19873538764215026	1.5877587476652217	-0.3591809035769447	-0.1941704254188334	1.581727788590042	-0.42854506204790377	-0.15409151757259967	1.894818181047931	-0.6994216740685814	-0.17445297988019043	1.7358344156273595	-0.6900361074702407	-0.1599627180345449	1.5790673674638758	-0.7029725245308187	-0.18972954524370939	1.539324461630029	-0.6853194805719882	-0.3001385543047041	1.4846856605687362	-1.1910988994482052	-0.151533507599491	1.5675395385341655	-0.7016761292677626	-0.1856878065528225	2.055361836617942	-0.618916118475243	-0.21424598266725273	2.123831481310468	-0.6031931451545156	-0.20243061989182176	2.0452433987553706	-0.5341405325476853	-0.21730760844557542	2.017940746415199	-0.43698916365096746	-0.2565680865150729	2.0227122981549037	-0.47054741819109386	-0.16761580855190736	2.0641274728056302	-0.705360419549732	-0.20926358352138766	2.051250253498819	-0.6999074462450876	-0.24948997777312498	2.0529817279060487	-0.5932834803697589
27	0.9	-0.17197527721671432	1.889937232715838	-0.6181116701304051	-0.18356304090948378	1.8867611949987457	-0.5504790866085664	-0.2045511792139243	1.7361617223470975	-0.4676622875426774	-0.19702971174857561	1.5987555068923651	-0.4179881240468208	-0.20518086165084057	1.5749627837428932	-0.37339874842517246	-0.19873538764215026	1.5877587476652217	-0.3591809035769447	-0.190002521292833	1.5897911398762163	-0.4339043443495951	-0.16029437202852484	1.8953730722704036	-0.6807518794270381	-0.17237609710127166	1.7329241770531225	-0.6794844523808188	-0.15779032426272127	1.5791773211247186	-0.7051946360208781	-0.18762593718605214	1.5398469590066175	-0.6874589244114508	-0.2992262864539804	1.485263122083185	-1.1878654511280262	-0.14944351936711614	1.5680610232407826	-0.7039397852499373	-0.18512315718832387	2.0563969294585984	-0.6076770834961733	-0.21018925340066869	2.126002217513873	-0.5989621222367622	-0.2025295625564659	2.0474417964567744	-0.5259587989133137	-0.2415188798963441	2.0124292186642445	-0.388474371202595	-0.2242375608321818	2.038751279936143	-0.47396133563678106	-0.16443275369537005	2.0658340223133953	-0.6941171185497834	-0.19438080099474103	2.064240901997527	-0.7206854989325426	-0.2011627590761846	2.0655118814905844	-0.6463041863538015
28	0.9333333333333333	-0.17681720922590646	1.892268028622385	-0.6053049949650618	-0.19107458791272192	1.8890420356523046	-0.5384396809152509	-0.20593847832532491	1.7399347177067108	-0.4620707634340602	-0.19787554620936199	1.60046224931275	-0.4129546742666477	-0.20518086165084057	1.5749627837428932	-0.37339874842517246	-0.19873538764215026	1.5877587476652217	-0.3591809035769447	-0.19307995217955592	1.5898450560542345	-0.42633995063185026	-0.1646659835030089	1.8966016305449314	-0.6645270255848994	-0.17621002104944547	1.736379267584426	-0.6717583144714506	-0.15947396249769827	1.58194584050584	-0.7041060088991662	-0.18750740174492492	1.5392959770157353	-0.6875357127986553	-0.29591198902511684	1.4873807729367008	-1.188117372424725	-0.15127102629975217	1.5721319933629077	-0.7027566839139778	-0.183411680705503	2.0573001006693254	-0.6018581986198628	-0.20617776940956345	2.128242221971092	-0.5954846470949229	-0.20173262024455876	2.0474039019054078	-0.5150301278003501	-0.24004099595383233	2.0164187384440373	-0.3697835378755575	-0.2290833744822152	2.0361776613357456	-0.4793192614027314	-0.16374331508644308	2.0664934842463123	-0.6914010712972946	-0.190301228342278	2.0705586645859464	-0.7180217527666961	-0.19986153709954083	2.0765683061831575	-0.6172666093172671
29	0.9666666666666667	-0.18212105358636618	1.8905420414944683	-0.5949663806532826	-0.19318385772596164	1.885952385326269	-0.5268595383332196	-0.2047626578904118	1.7409975683598091	-0.4590608437215646	-0.1971271915609171	1.5993486574793319	-0.4085113801440103	-0.20518086165084057	1.5749627837428932	-0.37339874842517246	-0.19873538764215026	1.5877587476652217	-0.3591809035769447	-0.19496389776261305	1.5903367564466198	-0.4147648661688944	-0.16676340859102037	1.8951021100405674	-0.6618471512593573	-0.17803363298610583	1.7363485420605635	-0.6780506477375761	-0.16045060462291866	1.580234874447097	-0.706759138704121	-0.1875517140569356	1.5391256596856264	-0.6875204136880714	-0.2983216625600739	1.4852917379545534	-1.1845925272880322	-0.14995542558495178	1.5697152109751729	-0.7075417613224942	-0.18586966627497253	2.0544913720280413	-0.5907220214694234	-0.2052703634278145	2.129401565425811	-0.5930095615058721	-0.2057762007625827	2.0457145056339905	-0.5013914106878832	-0.24307680221856495	2.0277160711023896	-0.35898243935868385	-0.22742967331223565	2.0475075033712566	-0.47770112394556186	-0.16341191038845249	2.063528056179637	-0.6798205959150466	-0.18976923563459638	2.0737824324918495	-0.7067680809146606	-0.20533779371523891	2.0805647037454893	-0.5992082419033851
